<svg width="50" height="50" viewBox="0 0 50 50" fill="none" xmlns="http://www.w3.org/2000/svg">
<path d="M24.8954 30.0909C23.7675 30.0656 22.639 30.0594 21.5104 30.0531C19.6382 30.0428 17.7657 30.0325 15.8951 29.935C15.8895 27.1032 15.8839 24.2628 15.8895 21.4311C20.9427 21.4048 25.9959 21.396 31.0547 21.4574C31.361 28.1383 30.7965 35.2475 28.1909 40.768L28.1909 40.7681C26.2152 45.1403 23.2449 47.9644 19.9964 49.2271C16.7479 50.4898 13.2205 50.1915 10.1296 48.3176L10.1295 48.3176C7.02723 46.4568 4.37616 42.9476 2.56623 38.5869C0.756354 34.2263 -0.212112 29.015 0.0502418 23.7511L0.050245 23.7507C0.117228 17.3101 2.03044 11.2714 4.9495 6.89686C7.86871 2.52206 11.7928 -0.187005 15.8813 0.0280228L15.8822 0.0279531C19.7962 -0.2527 23.4775 2.43004 26.4802 6.19507C25.2042 8.47382 23.8782 10.6824 22.4633 12.7424C20.6575 10.7826 18.4727 9.52389 16.2872 9.32081C14.0986 9.11745 11.9104 9.97281 10.1028 12.2404C7.51896 15.0528 6.16907 19.7777 6.086 24.5552C6.00294 29.3328 7.18666 34.1651 9.67262 37.1927C12.0892 40.6468 15.5824 41.5178 18.6386 40.2021C21.6944 38.8866 24.3113 35.3861 24.9787 30.1014L24.971 30.1005L24.9632 30.0995L24.8954 30.0909ZM24.8954 30.0909C24.9205 30.0915 24.9455 30.0921 24.9705 30.0926L24.8952 30.0909L24.8954 30.0909ZM45.4643 21.3882L45.1537 21.3904L45.472 21.396C46.3751 21.4118 47.2824 21.4181 48.1876 21.4244C48.7906 21.4286 49.3928 21.4328 49.9922 21.4398V28.5295C49.2411 28.5426 48.4899 28.5513 47.7374 28.5601L47.7278 28.5602C46.9759 28.569 46.2225 28.5777 45.4664 28.5908L45.4604 28.2439L45.4587 28.5986L45.4585 28.6513C45.4474 31.0198 45.4364 33.3798 45.4308 35.7311H40.9297C40.9252 34.7848 40.9225 33.8371 40.9199 32.8891C40.9158 31.4642 40.9118 30.0386 40.9018 28.6162L41.2123 28.614L40.8941 28.6084C40.1411 28.5952 39.3853 28.5843 38.6295 28.5733L38.6273 28.5733L38.6256 28.5732C37.8722 28.5623 37.1189 28.5514 36.3683 28.5383V21.4485C37.8731 21.4223 39.378 21.4047 40.894 21.396L40.8983 22.1352L40.9018 21.3882C40.9129 19.0019 40.9241 16.6245 40.9408 14.2557H45.4364L45.4364 14.2587C45.442 16.6352 45.4476 19.0205 45.4643 21.3882Z" fill="#AD1457" stroke="black" stroke-width="0.015625"/>
</svg>
