<svg width="300" height="250" viewBox="0 0 300 250" fill="none" xmlns="http://www.w3.org/2000/svg">
<path d="M205.679 213.882C233.676 213.378 261.671 213.667 289.666 214.749C292.074 214.842 294.573 214.962 296.7 215.935C298.827 216.908 300.463 218.996 299.881 221.002C288.953 221.495 278.014 221.648 267.063 221.459C264.678 223.242 262.06 225.926 263.526 228.33C264.54 229.993 267.043 230.489 269.232 230.493C273.198 230.5 277.179 229.507 281.085 230.089C284.992 230.672 288.889 233.807 287.745 237.062C286.876 239.534 283.579 240.757 280.579 240.976C277.579 241.194 274.507 240.74 271.574 241.325C268.787 241.881 266.372 243.327 263.764 244.336C259.65 245.927 255.089 246.419 250.602 246.837C216.146 250.049 181.404 250.024 146.744 249.995C132.713 249.983 118.491 249.95 104.941 246.825C97.2178 245.043 89.8166 242.276 81.9956 240.84C72.6536 239.126 62.9984 239.358 53.4448 239.41C36.6731 239.5 19.9156 239.007 3.17218 237.93C1.9262 237.85 0.396796 237.579 0.0605409 236.547C-0.33188 235.343 1.26073 234.403 2.60692 233.923C10.235 231.228 17.9913 229.463 25.8026 228.643C29.7586 228.219 33.8351 228.003 37.4736 226.605C41.1121 225.208 44.2908 222.277 44.2567 218.859C44.2462 217.817 43.9579 216.701 44.5282 215.78C45.2854 214.557 47.1485 214.277 48.7559 214.144C66.5755 212.666 84.4922 212.049 102.393 212.296C108.689 212.384 115.012 212.577 121.264 211.93C126.387 211.399 131.404 210.311 136.453 209.397C143.23 208.17 172.722 201.814 177.024 206.971C180.245 210.832 173.596 211.665 182.234 213.24C189.755 214.612 198.051 214.02 205.679 213.882Z" fill="#F2F2F2"/>
<path d="M96.6869 196.25C96.6869 196.25 86.3046 227.598 95.1406 227.598C103.977 227.598 215.311 228.273 218.403 219.508C220.57 213.368 219.375 191.509 218.466 178.971C218.289 176.534 217.507 174.293 216.281 172.709C215.055 171.125 213.478 170.317 211.874 170.453C187.795 172.481 97.8421 179.997 98.2332 179.059C99.0064 177.205 98.4541 177.71 98.4541 177.71C98.4541 177.71 94.9197 194.902 96.6869 196.25Z" fill="#3F3D56"/>
<path opacity="0.1" d="M218.687 178.971C218.51 176.534 217.728 174.293 216.502 172.709C215.276 171.125 213.699 170.317 212.095 170.453C188.016 172.481 98.0632 179.997 98.4544 179.059C99.2275 177.205 98.6753 177.71 98.6753 177.71C98.6753 177.71 97.8864 181.548 97.2403 185.739C97.3319 185.725 97.4003 185.857 97.1021 186.658C97.0756 186.839 97.0494 187.019 97.0237 187.2C100.626 187.743 187.024 180.524 210.548 178.543C212.153 178.407 213.73 179.215 214.956 180.799C216.182 182.383 216.964 184.624 217.14 187.061C217.817 196.383 218.65 210.856 218.143 220.191C218.338 220.029 218.504 219.794 218.624 219.508C220.791 213.368 219.596 191.509 218.687 178.971Z" fill="black"/>
<path d="M109.062 149.269C107.911 148.731 106.455 148.036 106.586 146.903C106.656 146.301 107.184 145.831 107.566 145.326C108.304 144.353 108.503 142.982 107.71 142.042C106.918 141.102 105.01 140.976 104.311 141.971C103.952 142.483 103.973 143.124 103.788 143.702C103.209 145.505 100.865 146.297 98.875 146.997C96.8846 147.698 94.6576 149.001 94.8447 150.866C95.0489 152.901 98.1194 154.706 96.884 156.44C96.4359 157.07 95.4935 157.421 95.293 158.14C95.1519 158.647 95.4353 159.162 95.7104 159.624L97.6658 162.911C98.4437 164.219 99.2453 165.642 98.9848 167.098C98.4683 169.984 94.2705 171.088 90.9432 170.763C89.7248 170.645 88.2927 170.482 87.4554 171.263C86.8101 171.865 86.8112 172.803 87.0257 173.606C87.5777 175.672 89.3437 177.461 91.6037 178.244C89.0706 179.007 88.0758 182.221 89.8247 183.992C88.8239 184.518 87.7419 184.565 86.723 184.128C85.858 185.343 86.3665 187.011 87.4636 188.074C88.5606 189.137 90.1148 189.735 91.6197 190.303L90.2113 192.312C91.2305 193.527 93.4314 193.098 94.9156 192.331C96.3997 191.563 98.0102 190.532 99.6731 190.934C101.233 191.311 102.412 192.898 104 192.626C105.231 192.416 105.816 191.209 106.2 190.167L107.83 185.739C110.15 186.293 112.589 183.867 111.657 181.933C114.254 182.358 116.809 179.786 115.957 177.604C117.339 179.232 118.313 181.122 118.789 183.104C119.002 183.99 119.131 184.927 119.711 185.677C120.09 186.108 120.529 186.398 120.994 186.526C121.458 186.655 121.936 186.617 122.39 186.417C121.917 187.818 121.533 189.452 122.506 190.641C123.479 191.829 126.286 191.492 126.162 190.036C127.646 191.008 129.308 191.923 131.163 191.995C133.017 192.068 135.046 190.991 135.215 189.379C137.828 190.694 140.561 191.365 143.312 191.368C143.547 190.289 145.181 189.94 146.403 190.204C147.625 190.467 148.759 191.101 150.017 191.102C151.276 191.103 152.63 189.947 151.986 189.004C154.636 189.85 157.358 190.059 160.051 189.625C162.591 189.213 164.999 188.235 167.571 188.024C170.181 187.782 172.794 188.411 175.228 189.869C176.071 190.409 177.119 191.088 178.046 190.665C178.571 190.425 178.827 189.906 179.184 189.493C180.72 187.714 183.862 188.055 186.287 188.754C188.711 189.454 191.531 190.296 193.655 189.06C194.456 188.593 195.047 187.873 195.899 187.481C198.953 186.078 202.609 189.672 205.85 188.638C206.906 188.302 207.762 187.496 208.881 187.396C210.864 187.22 212.175 189.271 214.103 189.713C216.104 190.17 218.273 188.313 217.785 186.559C219.708 186.624 221.626 186.217 223.464 185.354L222.556 182.86C224.819 182.804 226.484 180.328 225.436 178.577C227.706 177.918 229.5 176.142 229.967 174.095C230.433 172.048 229.554 169.809 227.746 168.442C226.679 167.636 225.277 167.068 224.667 165.957C224.228 165.157 224.292 164.227 224.121 163.352C223.747 161.438 222.127 159.748 220.033 159.089C219.124 158.803 218.129 158.694 217.305 158.252C216.482 157.81 215.888 156.853 216.363 156.119C216.614 155.73 217.098 155.501 217.412 155.148C218.682 153.717 216.504 151.906 214.645 151.103L219.084 150.881L220.037 144.287C218.281 146.466 213.725 146.008 212.584 143.537C214.01 144.251 215.923 143.338 216.62 142.039C217.317 140.74 217.146 139.229 216.959 137.804C216.942 137.45 216.864 137.109 216.735 136.814C216.605 136.52 216.428 136.281 216.22 136.122C215.785 135.806 215.093 135.675 214.95 135.197C214.805 134.71 215.367 134.279 215.45 133.781C215.611 132.825 214.17 132.404 213.198 131.941C210.903 130.85 209.792 127.785 207.181 127.884C204.59 127.983 203.866 131.001 203.864 133.264C203.862 135.526 202.985 138.551 200.393 138.51C199.357 138.493 198.455 137.925 197.628 137.381L190.202 132.494C189.221 131.798 188.2 131.239 187.153 130.826C185.655 130.292 184 130.229 182.383 130.173L171.996 129.813C171.467 129.75 170.934 129.82 170.42 130.02C169.874 130.298 169.609 130.846 169.281 131.317C167.834 133.389 164.433 134.201 161.979 133.059C161.328 132.757 160.745 132.34 160.056 132.112C157.884 131.393 155.604 132.722 153.348 133.202C149.648 133.989 145.051 132.635 142.384 135.006C141.495 135.796 141.023 136.877 140.199 137.719C139.376 138.562 137.889 139.133 136.85 138.497C136.98 140.043 137.099 141.656 136.413 143.086C135.727 144.516 133.968 145.684 132.24 145.323C131.323 144.953 131.395 143.777 131.829 142.98C132.263 142.184 132.928 141.371 132.712 140.51C132.497 139.655 131.515 139.158 130.781 138.563C130.047 137.967 129.557 136.839 130.337 136.289C129.811 135.259 127.923 135.384 127.092 136.249C126.261 137.113 126.178 138.33 126.087 139.455C125.997 140.58 125.799 141.813 124.837 142.566C123.196 143.849 120.047 143.183 118.959 144.854C118.613 145.385 118.593 146.026 118.395 146.612C117.512 149.226 113.702 149.903 110.587 150.116C110.522 150.66 110.507 151.216 110.544 151.766C111.609 151.062 109.834 149.63 109.062 149.269Z" fill="#61AB43"/>
<path opacity="0.1" d="M216.959 146.283C217.146 147.708 217.317 149.219 216.62 150.518C216.516 150.705 216.399 150.874 216.271 151.022C217.209 150.975 218.146 150.928 219.084 150.881C219.402 148.683 219.72 146.485 220.037 144.287C219.31 145.19 218.102 145.639 216.855 145.681C216.899 145.877 216.934 146.079 216.959 146.283Z" fill="black"/>
<path opacity="0.1" d="M217.779 154.051C217.668 153.16 216.704 152.255 215.626 151.608C214.677 152.296 213.597 152.441 212.584 152.016C213.371 153.72 215.782 154.466 217.779 154.051Z" fill="black"/>
<path opacity="0.1" d="M219.157 158.856C219.133 159.024 219.108 159.192 219.084 159.36C217.605 159.434 216.125 159.508 214.645 159.582C216.504 160.385 218.682 162.196 217.412 163.627C217.098 163.98 216.614 164.209 216.363 164.598C215.887 165.332 216.482 166.289 217.305 166.731C218.129 167.173 219.124 167.282 220.033 167.568C222.127 168.227 223.747 169.917 224.121 171.831C224.292 172.706 224.228 173.636 224.667 174.436C225.277 175.547 226.678 176.115 227.746 176.921C227.848 176.999 227.947 177.08 228.044 177.163C229.009 176.331 229.702 175.257 229.967 174.095C230.433 172.048 229.553 169.809 227.746 168.442C226.678 167.636 225.277 167.068 224.667 165.957C224.228 165.157 224.292 164.227 224.121 163.352C223.747 161.438 222.127 159.748 220.033 159.089C219.747 158.999 219.452 158.927 219.157 158.856Z" fill="black"/>
<path opacity="0.1" d="M89.1067 189.225C89.4522 188.102 90.3348 187.105 91.6035 186.723C90.3914 186.339 89.2494 185.553 88.2585 184.421C87.7398 184.444 87.2218 184.345 86.7228 184.128C85.8578 185.343 86.3663 187.011 87.4634 188.074C87.9807 188.551 88.532 188.938 89.1067 189.225Z" fill="black"/>
<path opacity="0.1" d="M96.9366 156.357C97.5687 155.996 98.2163 155.702 98.8748 155.476C100.865 154.776 103.208 153.984 103.787 152.181C103.973 151.603 103.951 150.962 104.311 150.45C105.01 149.455 106.918 149.581 107.71 150.521C108.502 151.461 108.304 152.832 107.566 153.805C107.183 154.31 106.655 154.78 106.586 155.382C106.454 156.515 107.911 157.21 109.062 157.748C109.604 158.014 110.111 158.422 110.561 158.954C110.57 158.834 110.58 158.714 110.587 158.595C113.702 158.382 117.512 157.705 118.395 155.091C118.593 154.505 118.613 153.864 118.959 153.333C120.047 151.662 123.196 152.328 124.837 151.044C125.799 150.291 125.997 149.059 126.087 147.934C126.178 146.809 126.261 145.592 127.092 144.727C127.923 143.863 129.811 143.738 130.337 144.768C129.557 145.318 130.047 146.446 130.781 147.042C131.515 147.637 132.497 148.134 132.711 148.988C132.928 149.85 132.262 150.663 131.829 151.459C131.395 152.255 131.322 153.432 132.24 153.802C133.968 154.162 135.727 152.995 136.413 151.565C137.099 150.135 136.98 148.522 136.849 146.976C137.889 147.612 139.375 147.041 140.199 146.198C141.023 145.356 141.495 144.275 142.384 143.485C145.051 141.114 149.648 142.468 153.348 141.681C155.604 141.201 157.883 139.872 160.055 140.591C160.745 140.819 161.328 141.236 161.979 141.538C164.433 142.68 167.834 141.868 169.28 139.796C169.609 139.325 169.874 138.777 170.42 138.499C170.934 138.298 171.466 138.229 171.995 138.292C175.458 138.412 178.921 138.532 182.383 138.652C184 138.708 185.655 138.771 187.152 139.305C188.2 139.718 189.221 140.276 190.202 140.973C192.677 142.602 195.153 144.231 197.628 145.86C198.454 146.404 199.357 146.972 200.392 146.989C202.985 147.03 203.862 144.005 203.864 141.742C203.866 139.48 204.59 136.462 207.18 136.363C209.791 136.263 210.903 139.329 213.197 140.42C214.17 140.883 215.61 141.304 215.45 142.26C215.376 142.704 214.923 143.094 214.928 143.519C215.574 143.287 216.162 142.772 216.62 142.039C217.317 140.74 217.145 139.229 216.959 137.804C216.942 137.45 216.864 137.109 216.735 136.814C216.605 136.52 216.427 136.281 216.219 136.122C215.785 135.806 215.093 135.675 214.95 135.197C214.805 134.71 215.367 134.279 215.45 133.781C215.61 132.825 214.17 132.404 213.197 131.941C210.903 130.85 209.791 127.785 207.18 127.884C204.59 127.983 203.866 131.001 203.864 133.264C203.862 135.526 202.985 138.551 200.392 138.51C199.357 138.493 198.454 137.925 197.628 137.381C195.153 135.752 192.677 134.123 190.202 132.494C189.221 131.798 188.2 131.239 187.152 130.826C185.655 130.292 184 130.229 182.383 130.173C178.921 130.053 175.458 129.933 171.995 129.813C171.466 129.75 170.934 129.82 170.42 130.02C169.874 130.298 169.609 130.846 169.28 131.317C167.834 133.389 164.433 134.201 161.979 133.059C161.328 132.757 160.745 132.34 160.055 132.112C157.883 131.393 155.604 132.722 153.348 133.202C149.648 133.989 145.051 132.635 142.384 135.006C141.495 135.796 141.023 136.877 140.199 137.719C139.375 138.562 137.889 139.133 136.849 138.497C136.98 140.043 137.099 141.656 136.413 143.086C135.727 144.516 133.968 145.684 132.24 145.323C131.322 144.953 131.395 143.776 131.829 142.98C132.262 142.184 132.928 141.371 132.711 140.51C132.497 139.655 131.515 139.158 130.781 138.563C130.047 137.967 129.557 136.839 130.337 136.289C129.811 135.259 127.923 135.384 127.092 136.249C126.261 137.113 126.178 138.33 126.087 139.455C125.997 140.58 125.799 141.813 124.837 142.566C123.196 143.849 120.047 143.183 118.959 144.854C118.613 145.385 118.593 146.026 118.395 146.612C117.512 149.226 113.702 149.903 110.587 150.116C110.58 150.235 110.57 150.355 110.561 150.476C110.111 149.944 109.604 149.535 109.062 149.269C107.911 148.731 106.454 148.036 106.586 146.903C106.655 146.301 107.183 145.831 107.566 145.326C108.304 144.353 108.502 142.982 107.71 142.042C106.918 141.102 105.01 140.976 104.311 141.971C103.951 142.483 103.973 143.124 103.787 143.702C103.208 145.505 100.865 146.297 98.8748 146.997C96.8844 147.698 94.6574 149.001 94.8445 150.866C95.0454 152.868 98.019 154.648 96.9366 156.357Z" fill="black"/>
<path opacity="0.1" d="M91.6037 178.244C91.0564 178.398 90.5334 178.711 90.063 179.165C90.3612 179.185 90.6581 179.214 90.9432 179.242C94.2705 179.567 98.4683 178.463 98.9847 175.577C99.2453 174.121 98.4437 172.698 97.6658 171.39C97.353 170.864 97.0403 170.339 96.7277 169.813C95.0998 170.657 92.8753 170.952 90.9432 170.763C89.7248 170.645 88.2927 170.482 87.4554 171.263C86.8101 171.865 86.8113 172.803 87.0257 173.606C87.5777 175.672 89.3437 177.461 91.6037 178.244Z" fill="black"/>
<path d="M159.368 165.05C177.668 165.05 192.503 150.109 192.503 131.679C192.503 113.248 177.668 98.3077 159.368 98.3077C141.068 98.3077 126.233 113.248 126.233 131.679C126.233 150.109 141.068 165.05 159.368 165.05Z" fill="#EA565C"/>
<path opacity="0.2" d="M148.102 129.319C148.102 129.319 133.081 131.679 137.499 121.903C141.917 112.128 147.44 108.757 150.09 111.454C152.741 114.151 153.846 121.566 153.404 121.566C152.962 121.566 146.556 115.836 144.347 120.218C142.138 124.6 148.102 129.319 148.102 129.319Z" fill="white"/>
<path opacity="0.2" d="M161.118 130.275C161.118 130.275 173.522 143.416 165.997 146.441C158.472 149.466 152.843 146.534 151.983 141.853C151.123 137.172 153.451 130.448 153.786 130.887C154.121 131.326 156.535 142.042 160.082 140.913C163.629 139.784 161.118 130.275 161.118 130.275Z" fill="white"/>
<path opacity="0.2" d="M164.014 122.039C164.014 122.039 164.993 99.0451 170.573 107.322C176.153 115.598 177.411 124.469 175.226 128.008C173.042 131.547 168.066 131.973 168.14 131.308C168.213 130.644 172.984 121.96 170.52 117.906C168.057 113.852 164.014 122.039 164.014 122.039Z" fill="white"/>
<path d="M119.385 162.353C137.685 162.353 152.52 147.412 152.52 128.982C152.52 110.552 137.685 95.6111 119.385 95.6111C101.085 95.6111 86.25 110.552 86.25 128.982C86.25 147.412 101.085 162.353 119.385 162.353Z" fill="#EA565C"/>
<path opacity="0.2" d="M108.119 126.623C108.119 126.623 93.0977 128.982 97.5157 119.207C101.934 109.431 107.456 106.061 110.107 108.757C112.758 111.454 113.862 118.87 113.421 118.87C112.979 118.87 106.573 113.139 104.364 117.521C102.155 121.903 108.119 126.623 108.119 126.623Z" fill="white"/>
<path opacity="0.2" d="M121.135 127.578C121.135 127.578 133.539 140.719 126.014 143.744C118.489 146.77 112.86 143.838 112 139.157C111.14 134.476 113.467 127.751 113.803 128.19C114.138 128.63 116.552 139.345 120.099 138.216C123.645 137.087 121.135 127.578 121.135 127.578Z" fill="white"/>
<path opacity="0.2" d="M124.031 119.343C124.031 119.343 125.009 96.3484 130.59 104.625C136.17 112.902 137.427 121.773 135.243 125.312C133.059 128.85 128.083 129.276 128.157 128.612C128.23 127.947 133.001 119.263 130.537 115.209C128.074 111.155 124.031 119.343 124.031 119.343Z" fill="white"/>
<path opacity="0.1" d="M136.629 100.582C143.847 106.704 148.434 115.87 148.434 126.117C148.434 144.547 133.599 159.488 115.299 159.488C109.028 159.488 103.165 157.733 98.1655 154.686C103.929 159.574 111.37 162.522 119.496 162.522C137.796 162.522 152.631 147.581 152.631 129.151C152.631 117.036 146.22 106.429 136.629 100.582Z" fill="black"/>
<path opacity="0.1" d="M176.612 102.942C183.83 109.063 188.417 118.23 188.417 128.477C188.417 146.907 173.582 161.848 155.282 161.848C149.011 161.848 143.148 160.093 138.148 157.045C143.912 161.934 151.353 164.881 159.479 164.881C177.779 164.881 192.614 149.941 192.614 131.51C192.614 119.395 186.203 108.788 176.612 102.942Z" fill="black"/>
<path d="M99.248 122.589C99.248 122.589 127.744 76.0719 197.549 95.2855C252.73 110.474 207.417 136.616 186.01 146.902C179.799 149.886 173.365 151.653 166.862 152.163C142.712 154.061 81.966 155.757 99.248 122.589Z" fill="#714B4F"/>
<path opacity="0.1" d="M186.01 136.453C179.799 139.436 173.365 141.204 166.862 141.713C147.298 143.251 103.719 144.655 97.0612 127.499C88.654 155.229 144.064 153.617 166.862 151.826C173.365 151.316 179.799 149.549 186.01 146.565C201.701 139.026 230.234 122.967 222.623 108.948C217.499 119.95 198.003 130.69 186.01 136.453Z" fill="black"/>
<path opacity="0.1" d="M160.106 95.4541L167.838 118.713" stroke="black" stroke-width="2" stroke-miterlimit="10"/>
<path opacity="0.1" d="M136.249 103.881L142.876 123.432" stroke="black" stroke-width="2" stroke-miterlimit="10"/>
<path opacity="0.1" d="M174.023 95.4541L184.405 118.713" stroke="black" stroke-width="2" stroke-miterlimit="10"/>
<path opacity="0.1" d="M136.249 125.454L205.833 111.971" stroke="black" stroke-width="2" stroke-miterlimit="10"/>
<path opacity="0.1" d="M203.182 99.8361L208.042 110.286" stroke="black" stroke-width="2" stroke-miterlimit="10"/>
<path opacity="0.1" d="M122.553 111.971L125.646 121.746" stroke="black" stroke-width="2" stroke-miterlimit="10"/>
<path d="M132.94 80.3034C132.94 80.3034 196.484 79.8647 197.067 78.9873C197.65 78.11 211.058 77.6452 213.682 83.3479C216.305 89.0507 217.18 91.6827 213.682 92.5601C210.184 93.4374 95.0468 183.365 95.0468 183.365C95.0468 183.365 88.6341 184.243 91.8404 174.592C95.0468 164.941 132.94 80.3034 132.94 80.3034Z" fill="#F6C964"/>
<path d="M159.618 120.414C159.618 124.045 148.145 132.886 133.993 132.886C119.841 132.886 108.369 124.045 108.369 120.414C108.369 116.784 119.841 115.358 133.993 115.358C148.145 115.358 159.618 116.784 159.618 120.414Z" fill="#61AB43"/>
<path d="M133.993 126.819C148.145 126.819 159.618 123.876 159.618 120.246C159.618 116.615 148.145 113.673 133.993 113.673C119.841 113.673 108.369 116.615 108.369 120.246C108.369 123.876 119.841 126.819 133.993 126.819Z" fill="#61AB43"/>
<path d="M190.544 114.347C190.544 117.977 179.071 126.819 164.919 126.819C150.767 126.819 139.295 117.977 139.295 114.347C139.295 110.717 150.767 109.291 164.919 109.291C179.071 109.291 190.544 110.717 190.544 114.347Z" fill="#61AB43"/>
<path d="M164.919 120.751C179.071 120.751 190.544 117.809 190.544 114.178C190.544 110.548 179.071 107.605 164.919 107.605C150.767 107.605 139.295 110.548 139.295 114.178C139.295 117.809 150.767 120.751 164.919 120.751Z" fill="#61AB43"/>
<path d="M221.47 108.279C221.47 111.91 209.997 120.751 195.845 120.751C181.693 120.751 170.221 111.91 170.221 108.279C170.221 104.649 181.693 103.223 195.845 103.223C209.997 103.223 221.47 104.649 221.47 108.279Z" fill="#61AB43"/>
<path d="M195.845 114.684C209.997 114.684 221.47 111.741 221.47 108.111C221.47 104.481 209.997 101.538 195.845 101.538C181.693 101.538 170.221 104.481 170.221 108.111C170.221 111.741 181.693 114.684 195.845 114.684Z" fill="#61AB43"/>
<path d="M101.475 110.147C101.475 110.147 90.9364 107.529 96.3284 94.4391C101.72 81.3493 103.534 66.6758 105.887 63.3976C108.518 59.7325 162.813 -4.52653 205.112 66.5797C209.593 74.2027 213.236 82.8826 215.898 92.2824C216.41 94.0596 216.974 95.6545 217.526 96.496C219.241 99.1139 220.712 106.594 217.526 110.334C214.34 114.074 120.47 128.659 101.475 110.147Z" fill="#3F3D56"/>
<path d="M150.861 55.7308C150.212 56.4199 149.446 56.8094 148.656 56.8527C147.437 56.8527 146.45 56.3504 146.45 55.7308C146.45 55.1111 147.437 54.6088 148.656 54.6088C149.446 54.6521 150.212 55.0416 150.861 55.7308Z" fill="#F2F2F2"/>
<path d="M133.214 48.6248C132.565 49.314 131.799 49.7034 131.009 49.7468C129.79 49.7468 128.803 49.2444 128.803 48.6248C128.803 48.0051 129.79 47.5028 131.009 47.5028C131.799 47.5461 132.565 47.9356 133.214 48.6248Z" fill="#F2F2F2"/>
<path d="M181.152 58.9796C180.397 59.3414 179.59 59.3643 178.827 59.0454C177.665 58.4904 176.82 57.5611 176.942 56.9697C177.063 56.3783 178.104 56.3488 179.266 56.9038C180.012 57.3054 180.667 58.0259 181.152 58.9796Z" fill="#F2F2F2"/>
<path d="M148.554 39.906C147.8 40.2678 146.993 40.2907 146.23 39.9718C145.067 39.4168 144.223 38.4874 144.344 37.8961C144.465 37.3047 145.506 37.2752 146.669 37.8302C147.415 38.2317 148.069 38.9523 148.554 39.906Z" fill="#F2F2F2"/>
<path d="M184.093 46.6378C183.338 46.9996 182.531 47.0225 181.768 46.7036C180.605 46.1486 179.761 45.2193 179.882 44.6279C180.004 44.0365 181.044 44.007 182.207 44.562C182.953 44.9636 183.608 45.6841 184.093 46.6378Z" fill="#F2F2F2"/>
<path d="M176.841 45.6329C176.191 46.3221 175.425 46.7116 174.635 46.7549C173.417 46.7549 172.429 46.2526 172.429 45.6329C172.429 45.0132 173.417 44.5109 174.635 44.5109C175.425 44.5542 176.191 44.9437 176.841 45.6329Z" fill="#F2F2F2"/>
<path d="M155.763 38.9011C155.113 39.5903 154.348 39.9798 153.557 40.0231C152.339 40.0231 151.351 39.5207 151.351 38.9011C151.351 38.2814 152.339 37.7791 153.557 37.7791C154.348 37.8224 155.113 38.2119 155.763 38.9011Z" fill="#F2F2F2"/>
<path d="M171.939 38.9011C171.289 39.5903 170.523 39.9798 169.733 40.0231C168.515 40.0231 167.527 39.5207 167.527 38.9011C167.527 38.2814 168.515 37.7791 169.733 37.7791C170.523 37.8224 171.289 38.2119 171.939 38.9011Z" fill="#F2F2F2"/>
<path d="M165.812 53.4868C165.162 54.176 164.396 54.5655 163.606 54.6088C162.387 54.6088 161.4 54.1064 161.4 53.4868C161.4 52.8671 162.387 52.3648 163.606 52.3648C164.396 52.4081 165.162 52.7976 165.812 53.4868Z" fill="#F2F2F2"/>
<path d="M147.99 50.8657C148.174 49.6917 148.575 48.6231 149.146 47.7877C150.055 46.55 151.011 45.9216 151.282 46.3839C151.552 46.8463 151.034 48.2244 150.125 49.462C149.516 50.2329 148.775 50.7202 147.99 50.8657Z" fill="#F2F2F2"/>
<path d="M136.961 46.7518C137.145 45.5777 137.546 44.5092 138.117 43.6737C139.026 42.4361 139.982 41.8077 140.253 42.27C140.523 42.7324 140.005 44.1105 139.096 45.3481C138.487 46.1189 137.746 46.6062 136.961 46.7518Z" fill="#F2F2F2"/>
<path d="M117.844 66.9474C118.027 65.7734 118.429 64.7048 119 63.8694C119.909 62.6317 120.865 62.0033 121.135 62.4656C121.406 62.928 120.888 64.3061 119.979 65.5437C119.37 66.3146 118.629 66.8019 117.844 66.9474Z" fill="#F2F2F2"/>
<path d="M160.244 44.5077C160.428 43.3337 160.83 42.2651 161.401 41.4297C162.31 40.1921 163.266 39.5636 163.536 40.0259C163.806 40.4883 163.289 41.8664 162.38 43.104C161.771 43.8749 161.029 44.3622 160.244 44.5077Z" fill="#F2F2F2"/>
<path d="M155.833 57.9716C156.017 56.7976 156.418 55.729 156.989 54.8935C157.898 53.6559 158.854 53.0275 159.125 53.4898C159.395 53.9522 158.877 55.3303 157.968 56.5679C157.359 57.3388 156.618 57.8261 155.833 57.9716Z" fill="#F2F2F2"/>
<path d="M237.243 204.53C237.243 204.53 233.888 206.066 232.21 209.139C232.21 209.139 229.19 211.187 227.344 210.675C225.498 210.163 222.143 215.284 224.827 216.82C227.512 218.356 243.955 222.452 244.29 221.172C244.626 219.892 244.626 206.834 244.626 206.834L237.243 204.53Z" fill="#575A89"/>
<path d="M263.603 202.332C263.603 202.332 260.468 204.72 259.159 208.184C259.159 208.184 256.413 210.99 254.537 210.966C252.661 210.943 249.928 216.863 252.745 217.676C255.562 218.49 272.222 218.241 272.409 216.892C272.596 215.543 271.135 202.678 271.135 202.678L263.603 202.332Z" fill="#575A89"/>
<path d="M242.696 28.7657C246.866 28.7657 250.246 23.6075 250.246 17.2444C250.246 10.8814 246.866 5.72308 242.696 5.72308C238.526 5.72308 235.146 10.8814 235.146 17.2444C235.146 23.6075 238.526 28.7657 242.696 28.7657Z" fill="#FFB9B9"/>
<path d="M248.82 19.1648C248.82 19.1648 249.659 27.8698 251.169 28.8939C252.22 29.6831 253.183 30.7199 254.022 31.9663L249.827 35.0386L241.606 34.2706C241.606 34.2706 242.277 28.6379 241.102 25.8216C239.928 23.0052 248.82 19.1648 248.82 19.1648Z" fill="#FFB9B9"/>
<path d="M264.424 60.3856C264.424 60.3856 268.283 75.4913 264.424 90.085C260.565 104.679 258.887 106.983 258.887 106.983L257.713 87.7807L259.063 85.9112C259.063 85.9112 259.881 80.0855 259.217 76.6363C258.552 73.187 259.559 62.4338 259.559 62.4338L264.424 60.3856Z" fill="#FFB9B9"/>
<path d="M235.565 93.1573C235.565 93.1573 230.699 110.055 231.203 118.248C231.706 126.441 235.565 161.005 235.565 161.005C235.565 161.005 235.062 205.554 236.572 205.554C238.082 205.554 245.297 209.651 245.297 206.834C245.297 204.018 246.807 136.426 246.807 136.426C246.807 136.426 255.364 166.126 256.203 168.43C257.042 170.734 262.411 206.834 264.256 206.834C266.102 206.834 271.807 204.274 271.303 202.482C270.8 200.69 265.095 160.749 261.907 150.508C258.72 140.267 259.391 101.606 259.391 101.606L254.022 83.6842L235.565 93.1573Z" fill="#3F3D56"/>
<path d="M240.431 11.9959C240.431 11.9959 235.733 11.4838 235.398 9.69163C235.062 7.89942 234.391 6.36324 234.726 6.36324C235.062 6.36324 235.23 5.0831 235.23 5.0831C235.23 5.0831 235.565 4.82707 235.733 5.0831C235.901 5.33913 236.069 3.29089 236.069 3.29089C236.069 3.29089 236.237 2.52281 236.404 3.03487C236.572 3.54693 236.572 3.29089 236.74 2.5228C236.908 1.75472 237.747 1.24266 237.747 1.24266C237.747 1.24266 240.934 1.49869 241.438 0.474572C241.941 -0.549544 247.646 0.218537 248.82 1.49869C249.995 2.77883 255.196 7.38737 254.357 11.2278C253.518 15.0683 250.498 23.5172 250.498 24.7974C250.498 26.0775 249.324 25.8215 248.988 24.5414C248.653 23.2612 245.968 21.725 245.968 20.9569C245.968 20.1889 244.458 13.02 243.619 13.5321C242.78 14.0441 241.773 18.1406 241.438 17.3725C241.102 16.6044 240.431 11.9959 240.431 11.9959Z" fill="#3F3D56"/>
<path d="M263.585 47.072C263.585 47.072 256.706 31.7102 254.693 30.9421C252.679 30.174 248.149 28.1258 248.149 28.1258C248.149 28.1258 243.619 29.1499 242.277 30.174C240.935 31.1982 235.901 32.9904 235.733 36.0627C235.565 39.1351 237.075 68.5785 236.237 71.3948C235.398 74.2111 232.545 101.094 233.888 100.582C235.23 100.07 234.223 93.4134 240.096 93.1573C245.968 92.9013 249.156 87.5247 251.337 93.9254C253.518 100.326 259.726 105.191 259.726 105.191C259.882 103.127 260.106 101.076 260.398 99.046C260.901 95.4616 259.055 86.7566 259.055 86.7566C259.055 86.7566 259.223 66.5302 259.894 64.226C260.565 61.9217 263.585 47.072 263.585 47.072Z" fill="#FA515D"/>
<path d="M261.068 46.5599L263.585 47.072C263.585 47.072 263.417 52.1926 264.088 53.7288C264.76 55.2649 265.934 63.2019 265.263 63.4579C264.592 63.7139 258.552 65.2501 258.552 65.2501L258.216 53.4727L261.068 46.5599Z" fill="#FA515D"/>
<path d="M233.887 55.7769C233.887 55.7769 232.21 72.4188 231.371 74.4671C230.532 76.5153 226.337 105.191 226.337 105.191C226.337 105.191 219.439 119.828 222.795 119.572C226.151 119.316 229.693 106.215 229.693 106.215C229.693 106.215 240.096 77.2834 240.096 74.2111C240.096 71.1387 242.612 55.7769 242.612 55.7769L233.887 55.7769Z" fill="#FFB9B9"/>
<path d="M238.753 33.2463L235.733 35.0385C235.733 35.0385 231.874 56.033 232.713 57.8252C233.552 59.6174 243.619 57.0571 243.787 56.289C243.955 55.5209 241.941 33.2463 238.753 33.2463Z" fill="#FA515D"/>
<path d="M26.7817 172.188C26.7817 197.133 37.0374 217.319 49.7113 217.319L26.7817 172.188Z" fill="#46455B"/>
<path d="M49.7114 217.319C49.7114 192.093 61.1561 171.681 75.2995 171.681L49.7114 217.319Z" fill="#FA515D"/>
<path d="M35.0901 174.449C35.0901 198.145 41.6299 217.319 49.7118 217.319L35.0901 174.449Z" fill="#FA515D"/>
<path d="M49.7114 217.319C49.7114 185.086 62.9397 159.003 79.2873 159.003L49.7114 217.319Z" fill="#46455B"/>
<path d="M44.8877 217.637C44.8877 217.637 48.1395 217.484 49.1195 216.419C50.0995 215.354 54.1216 214.083 54.3647 215.791C54.6078 217.499 59.2515 224.285 55.5802 224.33C51.909 224.375 47.0499 223.457 46.0718 222.548C45.0936 221.639 44.8877 217.637 44.8877 217.637Z" fill="#A8A8A8"/>
<path opacity="0.2" d="M55.6458 223.735C51.9745 223.781 47.1154 222.863 46.1373 221.954C45.3924 221.261 45.0956 218.777 44.9963 217.63C44.9275 217.635 44.8877 217.637 44.8877 217.637C44.8877 217.637 45.0937 221.639 46.0718 222.548C47.0499 223.457 51.909 224.375 55.5803 224.33C56.64 224.317 57.0061 223.741 56.986 222.889C56.8387 223.404 56.4346 223.726 55.6458 223.735Z" fill="black"/>
</svg>
