<svg width="346" height="321" viewBox="0 0 346 321" fill="none" xmlns="http://www.w3.org/2000/svg">
<rect width="432" height="321" transform="translate(-86)" fill="white"/>
<path d="M299.528 293.288L264.691 272.355C276.44 262.631 287.127 248.785 297.346 233.131L332.183 254.064C318.263 267.495 306.471 280.676 299.528 293.288Z" fill="#6C63FF"/>
<path d="M299.537 271.001C305.216 271.001 309.819 267.09 309.819 262.266C309.819 257.441 305.216 253.53 299.537 253.53C293.859 253.53 289.255 257.441 289.255 262.266C289.255 267.09 293.859 271.001 299.537 271.001Z" fill="white"/>
<path d="M131.479 197.765H127.655C127.52 197.765 127.391 197.81 127.296 197.891C127.201 197.972 127.148 198.081 127.148 198.196V199.622C127.148 199.678 127.161 199.734 127.186 199.786C127.212 199.839 127.249 199.886 127.296 199.926C127.343 199.966 127.399 199.998 127.461 200.02C127.522 200.041 127.588 200.052 127.655 200.052H128.288V202.189H130.845V200.052H131.479C131.613 200.052 131.742 200.007 131.837 199.926C131.932 199.845 131.986 199.736 131.986 199.622V198.196C131.986 198.081 131.932 197.972 131.837 197.891C131.742 197.81 131.613 197.765 131.479 197.765Z" fill="#E6E6E6"/>
<path d="M135.309 210.815C132.967 207.904 131.77 204.438 131.889 200.913C131.891 200.831 131.86 200.752 131.801 200.688C131.742 200.624 131.658 200.579 131.565 200.561V199.945H127.526V200.553H127.471C127.416 200.553 127.362 200.562 127.312 200.58C127.262 200.597 127.216 200.623 127.178 200.656C127.139 200.689 127.109 200.728 127.088 200.77C127.067 200.813 127.057 200.859 127.057 200.905C127.057 200.914 127.057 200.922 127.058 200.931C127.431 204.528 126.288 208.12 123.835 211.068C123.693 211.24 123.62 211.446 123.628 211.656L124.07 223.261C124.08 223.52 124.208 223.766 124.427 223.946C124.645 224.127 124.937 224.229 125.242 224.231H134.377C134.685 224.229 134.98 224.125 135.2 223.94C135.419 223.756 135.544 223.506 135.55 223.244L135.72 211.977C135.725 211.563 135.582 211.158 135.309 210.815Z" fill="#6C63FF"/>
<path opacity="0.2" d="M130.681 198.23C130.681 198.476 130.566 198.712 130.361 198.887C130.156 199.061 129.878 199.159 129.588 199.159C129.298 199.159 129.019 199.061 128.814 198.887C128.609 198.712 128.494 198.476 128.494 198.23" fill="black"/>
<path d="M133.53 213.051H125.818V217.419H133.53V213.051Z" fill="white"/>
<path d="M252.491 243.102H245.333C245.081 243.102 244.84 243.187 244.662 243.338C244.484 243.489 244.384 243.694 244.384 243.908V246.578C244.384 246.791 244.484 246.997 244.662 247.148C244.84 247.299 245.081 247.384 245.333 247.384H246.519V251.383H251.305V247.384H252.491C252.743 247.384 252.985 247.299 253.162 247.148C253.34 246.997 253.44 246.791 253.44 246.578V243.908C253.44 243.694 253.34 243.489 253.162 243.338C252.985 243.187 252.743 243.102 252.491 243.102Z" fill="#E6E6E6"/>
<path d="M259.661 267.532C255.277 262.082 253.036 255.593 253.258 248.995C253.262 248.842 253.204 248.694 253.094 248.574C252.983 248.454 252.827 248.37 252.653 248.337V247.183H245.093V248.321H244.988C244.887 248.321 244.786 248.338 244.692 248.371C244.598 248.404 244.512 248.453 244.44 248.514C244.368 248.576 244.311 248.648 244.272 248.728C244.233 248.808 244.214 248.894 244.214 248.98C244.214 248.996 244.214 249.012 244.216 249.028C244.811 256.082 242.8 262.407 238.182 268.005C237.917 268.326 237.781 268.712 237.795 269.105L238.622 290.829C238.642 291.314 238.881 291.773 239.29 292.111C239.699 292.45 240.246 292.641 240.817 292.644H257.916C258.494 292.64 259.046 292.445 259.456 292.1C259.866 291.755 260.102 291.288 260.112 290.797L260.431 269.705C260.44 268.931 260.172 268.173 259.661 267.532Z" fill="#6C63FF"/>
<path opacity="0.2" d="M250.999 243.972C250.999 244.433 250.783 244.876 250.399 245.202C250.015 245.528 249.494 245.711 248.951 245.711C248.408 245.711 247.888 245.528 247.504 245.202C247.12 244.876 246.904 244.433 246.904 243.972" fill="black"/>
<path d="M256.954 274.748H242.07C241.85 274.748 241.632 274.788 241.432 274.866C241.232 274.944 241.054 275.058 240.911 275.201C240.767 275.343 240.662 275.509 240.601 275.689C240.54 275.869 240.527 276.058 240.56 276.243L242.809 288.664H255.724L258.456 276.285C258.498 276.098 258.49 275.905 258.434 275.72C258.377 275.535 258.274 275.364 258.13 275.217C257.987 275.07 257.807 274.952 257.604 274.871C257.401 274.79 257.179 274.748 256.954 274.748Z" fill="#BA789A"/>
<path d="M232.067 293.254H189.397C192.381 279.551 191.694 263.005 189.397 245.21H232.067C229.832 263.005 229.164 279.551 232.067 293.254Z" fill="#6C63FF"/>
<path d="M210.99 276.657C216.668 276.657 221.272 272.746 221.272 267.922C221.272 263.097 216.668 259.186 210.99 259.186C205.311 259.186 200.708 263.097 200.708 267.922C200.708 272.746 205.311 276.657 210.99 276.657Z" fill="#BA789A"/>
<path d="M57.5376 142.054L67.1165 141.314L73.2125 128.737L62.3273 123.558L57.5376 142.054Z" fill="#BA789A"/>
<path d="M145.448 176.581C145.767 175.906 145.892 175.177 145.814 174.453C145.735 173.729 145.455 173.031 144.997 172.417C144.539 171.803 143.915 171.29 143.178 170.921C142.441 170.551 141.611 170.336 140.757 170.293L125.884 169.539L123.694 175.726L139.005 179.298C140.284 179.597 141.648 179.485 142.836 178.984C144.025 178.483 144.955 177.627 145.448 176.581Z" fill="#BA789A"/>
<path d="M129.478 179.402L129.314 167.793L96.2784 163.315L70.8281 138.517C69.504 137.227 67.6743 136.388 65.678 136.156C63.6817 135.924 61.6541 136.315 59.9708 137.256C58.9517 137.825 58.0922 138.578 57.4532 139.461C56.8142 140.344 56.4112 141.335 56.2728 142.365C56.1344 143.395 56.2638 144.438 56.6521 145.42C57.0403 146.403 57.6778 147.301 58.5195 148.051L79.5158 170.003L129.478 179.402Z" fill="#575A89"/>
<path d="M50.1353 309.994H58.8435L80.4432 227.028L102.82 252.658L115.882 308.145H124.155L122.414 248.589L93.2411 184.964H64.5039C56.6507 197.038 50.4903 209.485 57.5373 222.325L50.1353 309.994Z" fill="#BA789A"/>
<path d="M110.545 315.034C110.448 315.295 110.419 315.572 110.458 315.844C110.497 316.116 110.604 316.378 110.772 316.612C110.939 316.847 111.164 317.048 111.43 317.203C111.697 317.358 111.999 317.463 112.317 317.511L133.626 320.723C134.468 320.854 135.337 320.719 136.07 320.343C136.803 319.967 137.348 319.376 137.603 318.682C137.852 318.019 137.817 317.302 137.505 316.658C137.194 316.015 136.625 315.485 135.899 315.162C131.214 313.118 127.181 310.14 124.147 306.482C121.805 308.335 119.188 308.161 116.408 306.795L113.46 307.108L110.545 315.034Z" fill="#2F2E41"/>
<path d="M46.1035 315.034C46.0072 315.295 45.9776 315.572 46.0168 315.844C46.056 316.116 46.1629 316.378 46.3306 316.612C46.4982 316.847 46.7228 317.048 46.9891 317.203C47.2555 317.358 47.5577 317.463 47.8756 317.511L69.1847 320.723C70.0267 320.854 70.896 320.719 71.6287 320.343C72.3614 319.967 72.9068 319.376 73.1621 318.682C73.4105 318.019 73.3758 317.302 73.0641 316.658C72.7525 316.015 72.1838 315.485 71.458 315.162C66.7726 313.118 62.7402 310.14 59.7063 306.482C57.3643 308.335 54.7467 308.161 51.967 306.795L49.0187 307.108L46.1035 315.034Z" fill="#2F2E41"/>
<path d="M73.4301 133.361C80.1633 133.361 85.6216 128.724 85.6216 123.004C85.6216 117.283 80.1633 112.646 73.4301 112.646C66.6969 112.646 61.2385 117.283 61.2385 123.004C61.2385 128.724 66.6969 133.361 73.4301 133.361Z" fill="#BA789A"/>
<path d="M62.5447 187.738L94.3297 186.998L84.9951 162.039C90.7961 154.139 84.9579 146.246 76.6955 138.355L70.1644 134.656L59.7145 133.916C55.1901 138.029 52.7145 143.47 52.8062 149.099C53.0131 161.152 55.5253 174.274 62.5447 187.738Z" fill="#575A89"/>
<path d="M135.572 204.539C136.178 204.025 136.631 203.396 136.894 202.704C137.157 202.012 137.223 201.277 137.086 200.559C136.949 199.841 136.613 199.162 136.106 198.576C135.599 197.99 134.936 197.515 134.171 197.189L120.846 191.526L115.968 196.482L128.39 204.883C129.428 205.585 130.734 205.938 132.059 205.875C133.383 205.811 134.634 205.335 135.572 204.539Z" fill="#BA789A"/>
<path d="M119.583 201.795L124.808 191.067L96.5097 175.909L84.5939 144.605C83.974 142.976 82.6802 141.593 80.9522 140.713C79.2242 139.833 77.1792 139.514 75.1961 139.817C73.9953 140 72.8566 140.405 71.8603 141.003C70.864 141.601 70.0345 142.378 69.4304 143.278C68.8263 144.178 68.4624 145.181 68.3643 146.214C68.2663 147.247 68.4365 148.286 68.863 149.257L78.0017 176.456L119.583 201.795Z" fill="#575A89"/>
<path d="M53.4009 118.935C53.4009 122.965 56.4816 129.206 60.3675 131.881C62.982 133.682 66.4372 133.606 67.7695 131.142C69.1361 128.614 73.8468 122.672 82.138 118.935C93.1908 113.952 78.2184 105.428 67.7695 106.727C59.9176 107.704 53.4009 112.193 53.4009 118.935Z" fill="#2F2E41"/>
<path d="M60.803 113.386C65.6124 113.386 69.5112 110.074 69.5112 105.988C69.5112 101.902 65.6124 98.5894 60.803 98.5894C55.9935 98.5894 52.0947 101.902 52.0947 105.988C52.0947 110.074 55.9935 113.386 60.803 113.386Z" fill="#2F2E41"/>
<path d="M70.8176 103.398C70.8167 101.533 69.9861 99.7371 68.4923 98.3703C66.9985 97.0035 64.9518 96.1668 62.7625 96.028C62.9788 96.0143 63.1951 96 63.4156 96C65.7251 96 67.9401 96.7795 69.5732 98.1669C71.2063 99.5543 72.1238 101.436 72.1238 103.398C72.1238 105.36 71.2063 107.242 69.5732 108.63C67.9401 110.017 65.7251 110.796 63.4156 110.796C63.1951 110.796 62.9788 110.782 62.7625 110.768C64.9518 110.63 66.9985 109.793 68.4923 108.426C69.9861 107.059 70.8167 105.263 70.8176 103.398Z" fill="#2F2E41"/>
<path d="M73.6478 126.703C74.7299 126.703 75.6072 125.709 75.6072 124.483C75.6072 123.257 74.7299 122.264 73.6478 122.264C72.5657 122.264 71.6885 123.257 71.6885 124.483C71.6885 125.709 72.5657 126.703 73.6478 126.703Z" fill="#BA789A"/>
<path d="M320.38 296.427H184.819L156.113 181.138H131.614V175.965H161.049L189.755 291.253H320.38V296.427Z" fill="#3F3D56"/>
<path d="M204.685 317.489C211.892 317.489 217.734 312.526 217.734 306.403C217.734 300.281 211.892 295.318 204.685 295.318C197.479 295.318 191.637 300.281 191.637 306.403C191.637 312.526 197.479 317.489 204.685 317.489Z" fill="#3F3D56"/>
<path d="M302.112 317.489C309.318 317.489 315.16 312.526 315.16 306.403C315.16 300.281 309.318 295.318 302.112 295.318C294.906 295.318 289.064 300.281 289.064 306.403C289.064 312.526 294.906 317.489 302.112 317.489Z" fill="#3F3D56"/>
<path d="M317.908 293.99H186.016L162.745 196.288H339.747C340.65 196.288 341.543 196.455 342.363 196.776C343.183 197.097 343.912 197.565 344.499 198.148C345.086 198.731 345.517 199.415 345.763 200.154C346.01 200.892 346.064 201.667 345.924 202.425L324.085 289.503C323.86 290.756 323.112 291.898 321.978 292.722C320.844 293.545 319.4 293.996 317.908 293.99ZM187.448 292.512H317.908C318.985 292.516 320.027 292.191 320.846 291.597C321.664 291.002 322.203 290.178 322.366 289.273L344.205 202.195C344.306 201.648 344.267 201.089 344.089 200.556C343.912 200.023 343.601 199.529 343.177 199.108C342.753 198.687 342.227 198.349 341.635 198.118C341.043 197.886 340.399 197.766 339.747 197.766H164.856L187.448 292.512Z" fill="#3F3D56"/>
<path d="M211.656 293.678L196.416 197.148L198.132 196.907L213.372 293.437L211.656 293.678Z" fill="#3F3D56"/>
<path d="M296.396 292.937L294.678 292.7L309.473 196.909L311.191 197.145L296.396 292.937Z" fill="#3F3D56"/>
<path d="M256.022 197.027H254.282V293.557H256.022V197.027Z" fill="#3F3D56"/>
<path d="M171.632 222.893L171.628 224.371L340.035 224.718L340.039 223.24L171.632 222.893Z" fill="#3F3D56"/>
<path d="M328.155 268.552L180.205 269.411L180.217 270.889L328.167 270.03L328.155 268.552Z" fill="#3F3D56"/>
<path d="M134.224 182.247C139.509 182.247 143.793 180.261 143.793 177.812C143.793 175.364 139.509 173.378 134.224 173.378C128.94 173.378 124.656 175.364 124.656 177.812C124.656 180.261 128.94 182.247 134.224 182.247Z" fill="#3F3D56"/>
</svg>
