<svg width="51" height="50" viewBox="0 0 51 50" fill="none" xmlns="http://www.w3.org/2000/svg">
<path d="M50.0035 5.92264C48.6111 8.47221 46.9029 10.6456 44.8789 12.4428C44.8989 12.9248 44.9089 13.4696 44.9089 14.0771C44.9089 17.4529 44.5091 20.8327 43.7095 24.2167C42.9099 27.6006 41.6885 30.8397 40.0453 33.9338C38.4022 37.0279 36.4448 39.7691 34.1734 42.1572C31.9019 44.5453 29.1715 46.4495 25.9821 47.8697C22.7928 49.2899 19.3746 50 15.7277 50C10.0361 50 4.79471 48.1085 0.00349426 44.3254C0.853878 44.4419 1.66947 44.5001 2.45026 44.5001C7.20514 44.5001 11.452 42.6972 15.1909 39.0913C12.9739 39.0412 10.9884 38.2011 9.23442 36.5708C7.48045 34.9406 6.2734 32.8575 5.61329 30.3214C6.26577 30.4744 6.90974 30.5509 7.54521 30.5509C8.45993 30.5509 9.36 30.4041 10.2454 30.1103C7.87948 29.527 5.91673 28.0763 4.35717 25.7583C2.79766 23.4404 2.01791 20.765 2.01791 17.7322V17.5759C3.47014 18.5657 5.01916 19.0923 6.66499 19.1555C5.26343 18.0052 4.1522 16.5052 3.3313 14.6555C2.51035 12.8058 2.09987 10.8041 2.09987 8.65044C2.09987 6.37901 2.56223 4.26388 3.48694 2.30505C6.05986 6.19194 9.17749 9.29847 12.8398 11.6246C16.5022 13.9508 20.4313 15.2427 24.627 15.5003C24.448 14.5822 24.3584 13.6242 24.3581 12.6261C24.3581 9.14122 25.3598 6.16566 27.3634 3.6994C29.367 1.23313 31.7841 0 34.6149 0C37.5787 0 40.0751 1.32852 42.1042 3.98555C44.4224 3.42025 46.5931 2.39776 48.6162 0.918099C47.8368 3.93776 46.3349 6.26723 44.1106 7.90649C46.1549 7.60743 48.1192 6.94614 50.0034 5.92264H50.0035Z" fill="#AD1457"/>
</svg>
